# xmcd
#
# Track frame offsets:
#	150
#	13635
#	26712
#	39367
#	52100
#	66075
#	79810
#	91482
#	102670
#	116365
#	130287
#	143222
#	155927
#	169517
#	183145
#	196300
#	210222
#	227915
#	240409
#	253017
#	265225
#	279120
#	292842
#	306697
#	319637
#	333307
#
# Disc length: 4629 seconds
#
# Revision: 1
# Processed by: cddbd v1.5.1PL0 Copyright (c) Steve Scherf et al.
# Submitted via: audiograbber 1.80
#
DISCID=7012131a
DTITLE=dansk melodi grand prix 1957 - 2005 - CD 1
DYEAR=1900
DGENRE=
TTITLE0=MABEL - BOOM BOOM
TTITLE1=LONNIE DEVANTIER - HALLO HALLO
TTITLE2=TOMMY SEEBACH - DISCO TANGO
TTITLE3=KIRSTEN and SØREN - SKU' DU SPØR' FRA NO'EN
TTITLE4=ANNE CATHRINE OG DRENGENE - EN LILLE MELODI
TTITLE5=BRØDRENE OLSEN - SMUK SOM ET STJERNESKUD
TTITLE6=BRIXX - VIDEO VIDEO
TTITLE7=GRY  - KLODEN DREJER
TTITLE8=ROLLO and KING - DER STÅR ET BILLED AF MIG PÅ DIT BORD
TTITLE9=BAMSES VENNER - TÆNKER ALTID PÅ DIG
TTITLE10=TOMMY SEEBACH OG DEBBIE CAMERON - KRØLLER ELLER EJ
TTITLE11=TOMAS THORDARSON - SIG DET' LØGN
TTITLE12=KIRSTEN and SØREN - DET' LIGE DET
TTITLE13=STIG ROSSEN - VI DANSER ROCK OG RUL
TTITLE14=BIRTHE KJÆR - VI MALER BYEN RØD
TTITLE15=KENNY and LOTTE - ALT DET SOM INGEN SER
TTITLE16=BRØDRENE OLSEN - SAN FRANCISCO
TTITLE17=TRINE DYRHOLM and MOONLIGHTERS - DANSE I MÅNESKIN
TTITLE18=TRAX - DU ER FULD AF LØGN
TTITLE19=TOMMY SEEBACH - HIP HURRA DET ER MIN FØDSELSDAG
TTITLE20=KIRSTEN and SØREN - KA DU SE HVAD JEG SA'
TTITLE21=JAKOB SVEISTRUP - TÆNDER PÅ DIG
TTITLE22=ULLA BJERRE OG OLE BREDAHL - EXPRESSTOG TIL KINA
TTITLE23=SNAPSHOT - GI'R DU ET KNUS
TTITLE24=MALENE WINTHER MORTENSEN - VIS MIG HVEM DU ER
TTITLE25=CARSTEN ELMER and JØRGEN KLUBIN - MARIE
EXTD=
EXTT0=
EXTT1=
EXTT2=
EXTT3=
EXTT4=
EXTT5=
EXTT6=
EXTT7=
EXTT8=
EXTT9=
EXTT10=
EXTT11=
EXTT12=
EXTT13=
EXTT14=
EXTT15=
EXTT16=
EXTT17=
EXTT18=
EXTT19=
EXTT20=
EXTT21=
EXTT22=
EXTT23=
EXTT24=
EXTT25=
PLAYORDER=
